<?xml version="1.0" encoding="utf-8"?>
<!-- Generator: Adobe Illustrator 21.0.0, SVG Export Plug-In . SVG Version: 6.00 Build 0)  -->
<svg version="1.1" id="Layer_1" xmlns="http://www.w3.org/2000/svg" xmlns:xlink="http://www.w3.org/1999/xlink" x="0px" y="0px"
	 viewBox="0 0 623.6 170.1" style="enable-background:new 0 0 623.6 170.1;" xml:space="preserve">
<style type="text/css">
	.st0{fill:#0068FF;}
</style>
<g>
	<g>
		<path d="M25.7,85c0-35.5,26.2-62.2,62.2-62.2c35.9,0,62.2,26.7,62.2,62.2s-26.2,62.2-62.2,62.2C52,147.2,25.7,120.5,25.7,85z
			 M122.9,85c0-21.1-14.1-36.4-35-36.4c-20.9,0-35,15.3-35,36.4s14.1,36.4,35,36.4C108.8,121.5,122.9,106.2,122.9,85z"/>
		<path d="M163.6,24.3h26.7v13.8c5.6-7.3,16.5-15.3,33.3-15.3c30.1,0,46.6,17.7,46.6,50v72.9h-26.7v-67c0-21.4-9-30.6-25.5-30.6
			c-18.5,0-27.7,12.6-27.7,30.6v67h-26.7V24.3z"/>
		<path d="M283.8,85c0-34.5,26.5-62.2,60-62.2s60,27.7,60,62.2c0,3.2-0.2,6.3-0.7,9.2h-91.9c2.8,15.3,16.3,27.7,33.3,27.7
			c12,0,21.7-3.9,26.7-11.7h30.9c-8,22.1-30.9,36.9-57.6,36.9C310.2,147.2,283.8,119.5,283.8,85z M375.4,71.4
			c-3.5-14.1-16.3-23.8-31.7-23.8c-15.4,0-28.1,9.7-31.7,23.8H375.4z"/>
	</g>
	<g>
		<rect x="476.4" y="24.3" class="st0" width="24.3" height="24.3"/>
		<rect x="427.9" y="24.3" class="st0" width="24.3" height="24.3"/>
		<rect x="500.7" y="48.6" class="st0" width="24.3" height="24.3"/>
		<rect x="525" y="72.9" class="st0" width="24.3" height="24.3"/>
		<rect x="549.3" y="97.2" class="st0" width="24.3" height="24.3"/>
		<rect x="573.6" y="121.5" class="st0" width="24.3" height="24.3"/>
		<rect x="573.6" y="24.3" class="st0" width="24.3" height="24.3"/>
		<rect x="549.3" y="48.6" class="st0" width="24.3" height="24.3"/>
		<rect x="525" y="72.9" class="st0" width="24.3" height="24.3"/>
		<rect x="427.9" y="72.9" class="st0" width="24.3" height="72.9"/>
		<rect x="500.7" y="97.2" class="st0" width="24.3" height="24.3"/>
		<rect x="476.4" y="121.5" class="st0" width="24.3" height="24.3"/>
	</g>
</g>
</svg>
